<svg xmlns="http://www.w3.org/2000/svg" version="1.1" xmlns:xlink="http://www.w3.org/1999/xlink" xmlns:svgjs="http://svgjs.dev/svgjs" width="2000" height="2250" viewBox="0 0 2000 2250"><g transform="matrix(1,0,0,1,0,0)"><svg viewBox="0 0 320 360" data-background-color="#ffffff" preserveAspectRatio="xMidYMid meet" height="2250" width="2000" xmlns="http://www.w3.org/2000/svg" xmlns:xlink="http://www.w3.org/1999/xlink"><g id="tight-bounds" transform="matrix(1,0,0,1,0,0)"><svg viewBox="0 0 320 360" height="360" width="320"><g><svg></svg></g><g><svg viewBox="0 0 320 360" height="360" width="320"><g><path xmlns="http://www.w3.org/2000/svg" d="M39.474 120.804l2.852-5.236c22.696-41.686 66.871-69.977 117.674-69.972 50.817 0 95.006 28.305 117.697 70.005l2.852 5.241 8.173-31.337 31.03 7.961-2.654-4.792c-30.586-55.251-89.468-92.674-157.098-92.674-67.631 0-126.508 37.423-157.103 92.674l-2.654 4.787 31.063-7.956zM160 4.721c63.839 0 119.567 34.288 150.073 85.389l-24.731-6.341-6.417 24.608c-24.217-40.411-68.381-67.503-118.925-67.503-50.525 0-94.68 27.078-118.897 67.465l-6.412-24.575-24.764 6.341c30.506-51.101 86.238-85.384 150.073-85.384zM280.526 239.191l-2.852 5.236c-22.696 41.691-66.871 69.977-117.674 69.977-50.817 0-95.006-28.301-117.697-70.005l-2.852-5.236-8.173 31.332-31.035-7.961 2.654 4.792c30.591 55.246 89.468 92.674 157.103 92.674 67.631 0 126.513-37.427 157.103-92.674l2.654-4.787-31.063 7.956zM160 355.279c-63.839 0-119.567-34.288-150.073-85.389l24.727 6.346 6.421-24.609c24.217 40.402 68.381 67.499 118.925 67.499 50.529 0 94.68-27.078 118.901-67.47l6.408 24.575 24.764-6.341c-30.506 51.096-86.233 85.388-150.073 85.388z" fill="#ffffff" fill-rule="nonzero" stroke="none" stroke-width="1" stroke-linecap="butt" stroke-linejoin="miter" stroke-miterlimit="10" stroke-dasharray="" stroke-dashoffset="0" font-family="none" font-weight="none" font-size="none" text-anchor="none" style="mix-blend-mode: normal" data-fill-palette-color="tertiary"></path></g><g transform="matrix(1,0,0,1,118.54352393153611,90)"><svg viewBox="0 0 82.91295213692777 180" height="180" width="82.91295213692777"><g><svg viewBox="0 0 82.91295213692777 180" height="180" width="82.91295213692777"><g><svg viewBox="0 0 133.3435582822086 289.4824013883786" height="180" width="82.91295213692777"><g transform="matrix(1,0,0,1,0,109.4824013883786)"><svg viewBox="0 0 133.3435582822086 180" height="180" width="133.3435582822086"><g><svg viewBox="0 0 133.3435582822086 180" height="180" width="133.3435582822086"><g><svg viewBox="0 0 133.3435582822086 180" height="180" width="133.3435582822086"><g transform="matrix(1,0,0,1,0,0)"><svg width="133.3435582822086" viewBox="3.8499999046325684 -32.599998474121094 24.149999618530273 32.599998474121094" height="180" data-palette-color="#ff0000"><path d="M11.2 0L3.85 0 3.85-32.6 15.05-32.6Q17.75-32.6 20.1-32.08 22.45-31.55 24.2-30.33 25.95-29.1 26.98-27.08 28-25.05 28-22.1L28-22.1Q28-19.25 26.98-17.15 25.95-15.05 24.2-13.7 22.45-12.35 20.15-11.7 17.85-11.05 15.25-11.05L15.25-11.05 11.2-11.05 11.2 0ZM11.2-26.75L11.2-16.9 14.8-16.9Q20.8-16.9 20.8-22.1L20.8-22.1Q20.8-24.65 19.2-25.7 17.6-26.75 14.6-26.75L14.6-26.75 11.2-26.75Z" opacity="1" transform="matrix(1,0,0,1,0,0)" fill="#ffffff" class="undefined-text-0" data-fill-palette-color="primary" id="text-0"></path></svg></g></svg></g></svg></g></svg></g><g transform="matrix(1,0,0,1,25.468619631901838,0)"><svg viewBox="0 0 82.40631901840491 66.98872138837861" height="66.98872138837861" width="82.40631901840491"><g><svg xmlns="http://www.w3.org/2000/svg" xmlns:xlink="http://www.w3.org/1999/xlink" version="1.1" x="0" y="0" viewBox="6.670745849609375 14.50983715057373 88.21564483642578 71.71116638183594" enable-background="new 0 0 100 100" xml:space="preserve" height="66.98872138837861" width="82.40631901840491" class="icon-icon-0" data-fill-palette-color="accent" id="icon-0"><g fill="#ed2647" data-fill-palette-color="accent"><path fill="#ffffff" d="M67.539 22.815H20.016c-1.04 0-1.884-0.844-1.884-1.885 0-1.041 0.844-1.885 1.884-1.885h47.523c1.04 0 1.885 0.844 1.885 1.885C69.424 21.972 68.579 22.815 67.539 22.815z" data-fill-palette-color="accent"></path></g><g fill="#ed2647" data-fill-palette-color="accent"><path fill="#ffffff" d="M38.493 34.586H20.016c-1.04 0-1.884-0.844-1.884-1.885 0-1.042 0.844-1.886 1.884-1.886h18.477c1.042 0 1.885 0.844 1.885 1.886C40.378 33.742 39.534 34.586 38.493 34.586z" data-fill-palette-color="accent"></path></g><g fill="#ed2647" data-fill-palette-color="accent"><path fill="#ffffff" d="M54.605 58.169h-34.59c-1.04 0-1.884-0.843-1.884-1.885 0-1.04 0.844-1.885 1.884-1.885h34.59c1.042 0 1.887 0.845 1.887 1.885C56.492 57.326 55.647 58.169 54.605 58.169z" data-fill-palette-color="accent"></path></g><g fill="#ed2647" data-fill-palette-color="accent"><path fill="#ffffff" d="M83.118 58.169H63.503c-1.04 0-1.884-0.843-1.884-1.885 0-1.04 0.844-1.885 1.884-1.885h19.615c1.041 0 1.885 0.845 1.885 1.885C85.003 57.326 84.159 58.169 83.118 58.169z" data-fill-palette-color="accent"></path></g><g fill="#ed2647" data-fill-palette-color="accent"><path fill="#ffffff" d="M82.701 46.36H20.016c-1.04 0-1.884-0.844-1.884-1.885 0-1.042 0.844-1.884 1.884-1.884h62.686c1.041 0 1.886 0.843 1.886 1.884C84.587 45.517 83.742 46.36 82.701 46.36z" data-fill-palette-color="accent"></path></g><g fill="#ed2647" data-fill-palette-color="accent"><path fill="#ffffff" d="M12.909 27.367c-0.496 0-0.991-0.194-1.361-0.582l-4.355-4.552c-0.694-0.726-0.697-1.87-0.005-2.6l4.297-4.535c0.717-0.756 1.91-0.787 2.666-0.071 0.754 0.716 0.788 1.909 0.072 2.665l-3.064 3.232 3.115 3.254c0.718 0.753 0.691 1.946-0.06 2.666C13.847 27.193 13.378 27.367 12.909 27.367z" data-fill-palette-color="accent"></path></g><g fill="#ed2647" data-fill-palette-color="accent"><path fill="#ffffff" d="M12.909 74.438c-0.496 0-0.991-0.193-1.361-0.581l-4.355-4.552c-0.694-0.729-0.697-1.872-0.005-2.602l4.297-4.531c0.718-0.755 1.91-0.787 2.666-0.071 0.754 0.717 0.787 1.907 0.072 2.663l-3.064 3.23 3.115 3.254c0.718 0.754 0.691 1.946-0.06 2.664C13.847 74.264 13.378 74.438 12.909 74.438z" data-fill-palette-color="accent"></path></g><g fill="#ed2647" data-fill-palette-color="accent"><path fill="#ffffff" d="M71.189 86.221c-0.466 0-0.933-0.172-1.297-0.518-0.756-0.715-0.787-1.909-0.071-2.665l3.063-3.229-3.113-3.258c-0.721-0.752-0.693-1.944 0.06-2.665 0.752-0.719 1.944-0.692 2.665 0.061l4.354 4.555c0.694 0.726 0.696 1.869 0.006 2.599l-4.299 4.534C72.187 86.022 71.688 86.221 71.189 86.221z" data-fill-palette-color="accent"></path></g><g fill="#ed2647" data-fill-palette-color="accent"><path fill="#ffffff" d="M88.704 62.324c-0.466 0-0.932-0.171-1.297-0.517-0.756-0.716-0.788-1.909-0.072-2.665l3.063-3.232-3.112-3.253c-0.72-0.752-0.692-1.945 0.059-2.666 0.751-0.718 1.945-0.693 2.665 0.06l4.354 4.551c0.694 0.725 0.697 1.869 0.006 2.599l-4.297 4.534C89.702 62.128 89.203 62.324 88.704 62.324z" data-fill-palette-color="accent"></path></g><g fill="#ed2647" data-fill-palette-color="accent"><path fill="#ffffff" d="M44.114 69.901H20.016c-1.04 0-1.884-0.842-1.884-1.885 0-1.04 0.844-1.884 1.884-1.884h24.098c1.041 0 1.885 0.844 1.885 1.884C45.999 69.06 45.154 69.901 44.114 69.901z" data-fill-palette-color="accent"></path></g><g fill="#ed2647" data-fill-palette-color="accent"><path fill="#ffffff" d="M82.701 69.895H52.978c-1.041 0-1.885-0.844-1.885-1.884 0-1.044 0.844-1.886 1.885-1.886h29.724c1.041 0 1.886 0.842 1.886 1.886C84.587 69.051 83.742 69.895 82.701 69.895z" data-fill-palette-color="accent"></path></g><g fill="#ed2647" data-fill-palette-color="accent"><path fill="#ffffff" d="M65.816 81.679H20.016c-1.04 0-1.884-0.845-1.884-1.886 0-1.042 0.844-1.886 1.884-1.886h45.801c1.042 0 1.886 0.844 1.886 1.886C67.702 80.834 66.858 81.679 65.816 81.679z" data-fill-palette-color="accent"></path></g></svg></g></svg></g><g></g></svg></g></svg></g></svg></g></svg></g><defs></defs></svg><rect width="320" height="360" fill="none" stroke="none" visibility="hidden"></rect></g></svg></g></svg>